<?xml version="1.0" encoding="UTF-8"?>
<svg xmlns="http://www.w3.org/2000/svg" version="1.1" viewBox="0 0 400 400">
  <defs>
    <style>
      .cls-1 {
        fill: #fff;
        stroke: #231f20;
        stroke-miterlimit: 10;
      }
    </style>
  </defs>
  <!-- Generator: Adobe Illustrator 28.7.5, SVG Export Plug-In . SVG Version: 1.2.0 Build 176)  -->
  <g>
    <g id="Layer_1">
      <g>
        <circle class="cls-1" cx="197.5" cy="195.6" r="25"/>
        <path d="M196.5,188.8c0,.5.4,1,1,1s1-.4,1-1v-2.6c0-.5-.4-1-1-1s-1,.4-1,1v2.6ZM197.5,193.7c1.1,0,2,.9,2,2s-.9,2-2,2-2-.9-2-2,.9-2,2-2ZM197.5,199.6c2.2,0,3.9-1.8,3.9-3.9s-1.8-3.9-3.9-3.9-3.9,1.8-3.9,3.9,1.8,3.9,3.9,3.9ZM187,195.6c0,.5.4,1,1,1h2.6c.5,0,1-.4,1-1s-.4-1-1-1h-2.6c-.5,0-1,.4-1,1ZM204.4,194.7c-.5,0-1,.4-1,1s.4,1,1,1h2.6c.5,0,1-.4,1-1s-.4-1-1-1h-2.6ZM197.5,206.2c.5,0,1-.4,1-1v-2.6c0-.5-.4-1-1-1s-1,.4-1,1v2.6c0,.5.4,1,1,1ZM190.1,188.2c-.4.4-.4,1,0,1.4l1.9,1.9c.4.4,1,.4,1.4,0s.4-1,0-1.4l-1.9-1.9c-.4-.4-1-.4-1.4,0ZM203.1,199.8c-.4-.4-1-.4-1.4,0s-.4,1,0,1.4l1.9,1.9c.4.4,1,.4,1.4,0s.4-1,0-1.4l-1.9-1.9h0ZM190.1,203.1c.4.4,1,.4,1.4,0l1.9-1.9c.4-.4.4-1,0-1.4s-1-.4-1.4,0l-1.9,1.9c-.4.4-.4,1,0,1.4ZM201.7,190.1c-.4.4-.4,1,0,1.4s1,.4,1.4,0l1.9-1.9c.4-.4.4-1,0-1.4s-1-.4-1.4,0l-1.9,1.9h0Z"/>
      </g>
    </g>
  </g>
</svg>