<?xml version="1.0" encoding="UTF-8"?>
<svg xmlns="http://www.w3.org/2000/svg" version="1.1" viewBox="0 0 100 100">
  <defs>
    <style>
      .cls-1 {
        stroke: #1b3c69;
        stroke-width: 2.5px;
      }

      .cls-1, .cls-2 {
        fill: none;
        stroke-miterlimit: 10;
      }

      .cls-3 {
        fill: #1c3c69;
      }

      .cls-2 {
        stroke: #fff;
        stroke-linecap: round;
        stroke-width: 2px;
      }
    </style>
  </defs>
  <!-- Generator: Adobe Illustrator 28.7.5, SVG Export Plug-In . SVG Version: 1.2.0 Build 176)  -->
  <g>
    <g id="Layer_1">
      <g>
        <g>
          <path class="cls-3" d="M23.65,29.96c5.21-.87,20.47-4.54,26.55-4.34,8.31.27,26.55,5,26.55,5,0,0,.65,9.45-.33,19.55-.79,8.14-5.59,16.07-12.33,19.98s-11.51,4.34-17.16,3.69-16.52-6.24-20.2-14.06c-4.78-10.15-3.1-29.81-3.1-29.81Z"/>
          <path class="cls-1" d="M19.41,25.89c6.19-.33,21.5-4.72,30.95-4.56s23.84,4.78,30.3,5.05c0,0,1.32,14.54.05,26.01-1.19,10.86-9.23,18.46-12.38,20.52-4.4,2.88-10.64,5.76-17.05,5.76-5.21,0-13.79-1.74-20.42-7.17s-8.9-11.57-9.67-14.01c-2.61-8.25-1.79-31.6-1.79-31.6Z"/>
        </g>
        <g>
          <path class="cls-2" d="M42.65,59.08c2.44.16,3.64.27,4.13,1.09s.71,3.96,1.52,4.94,2.61,1.25,3.75.27.6-2.71,1.09-4.51,3.8-1.79,4.62-1.79"/>
          <g>
            <path class="cls-2" d="M35.21,33.45c-1.19,3.15-1.52,7.93-.76,10.97,1.07,4.29,4.02,7.71,7.17,9.23,3.15,1.52,6.08,1.95,6.62,2.06"/>
            <path class="cls-2" d="M40.31,34.86c-1.09,1.95-1.63,3.1-2.93,4.13-.61.49-3.15,1.74-3.15,1.74"/>
            <path class="cls-2" d="M42.27,41.27c-1.95,2.28-2.39,4.89-2.17,7.06s1.19,4.78,1.19,4.78"/>
            <path class="cls-2" d="M45.31,49.09c-1.03,2.82.81,6.14.81,6.14"/>
          </g>
          <g>
            <path class="cls-2" d="M65.16,34.1c1.08,3.19,1.24,7.98.38,10.99-1.22,4.25-4.28,7.57-7.49,8.97-3.2,1.41-6.15,1.74-6.69,1.83"/>
            <path class="cls-2" d="M60.01,35.33c1.02,1.99,1.52,3.15,2.79,4.23.6.51,3.09,1.85,3.09,1.85"/>
            <path class="cls-2" d="M57.83,41.66c1.87,2.35,2.22,4.97,1.92,7.13s-1.36,4.73-1.36,4.73"/>
            <path class="cls-2" d="M54.52,49.37c.93,2.86-1.03,6.1-1.03,6.1"/>
          </g>
        </g>
      </g>
    </g>
  </g>
</svg>