<?xml version="1.0" encoding="UTF-8"?>
<svg xmlns="http://www.w3.org/2000/svg" version="1.1" viewBox="0 0 351.11 77.22">
  <defs>
    <style>
      .cls-1 {
        fill: #1a3b69;
      }
    </style>
  </defs>
  <!-- Generator: Adobe Illustrator 28.7.6, SVG Export Plug-In . SVG Version: 1.2.0 Build 188)  -->
  <g>
    <g id="Layer_1">
      <g>
        <path class="cls-1" d="M40.66,10.05v12.62h-17.74v10.13h16.61v12.12h-16.61v24.4h-13.92V10.05h31.66Z"/>
        <path class="cls-1" d="M66.77,10.05c2.64,0,4.9.39,6.77,1.16,1.87.78,3.39,1.87,4.56,3.28,1.17,1.41,2.02,3.09,2.55,5.02.52,1.94.78,4.04.78,6.31,0,3.98-.72,7.19-2.17,9.63-1.45,2.44-3.77,3.93-6.96,4.48v.17c3.34.33,5.64,1.63,6.89,3.9,1.25,2.27,1.87,5.39,1.87,9.38v7.47c0,.83.02,1.62.07,2.37.05.75.12,1.42.23,2.03.1.61.23,1.08.37,1.41.2.33.4.65.6.95.2.31.52.6.97.87v.83h-14.82c-.35-.77-.61-1.69-.79-2.74-.18-1.05-.3-2.1-.37-3.15-.07-1.05-.13-2.06-.15-3.03-.02-.97-.04-1.76-.04-2.37v-3.98c0-1.66-.07-3.04-.23-4.15-.15-1.11-.41-1.98-.79-2.61-.37-.64-.85-1.08-1.42-1.33-.57-.25-1.28-.37-2.13-.37h-3.67v23.74h-13.92V10.05h21.78ZM61.68,35.12c1.99,0,3.47-.65,4.42-1.95.95-1.3,1.42-3,1.42-5.11,0-2.49-.46-4.26-1.39-5.31-.92-1.05-2.43-1.58-4.53-1.58h-2.69v13.95h2.77Z"/>
        <path class="cls-1" d="M119.61,10.05v12.62h-17.74v10.13h16.61v12.12h-16.61v11.79h18.41v12.62h-32.33V10.05h31.66Z"/>
        <path class="cls-1" d="M157.03,10.05v12.62h-17.74v10.13h16.61v12.12h-16.61v11.79h18.41v12.62h-32.33V10.05h31.66Z"/>
        <path class="cls-1" d="M183.59,25.73c0-1.77-.33-3.28-.97-4.52-.65-1.24-1.65-1.87-2.99-1.87-1.5,0-2.59.54-3.29,1.62-.7,1.08-1.05,2.28-1.05,3.61,0,1.94.56,3.47,1.68,4.61s2.53,2.12,4.23,2.95c1.69.83,3.52,1.67,5.46,2.53,1.94.86,3.77,1.98,5.46,3.36,1.69,1.38,3.11,3.2,4.23,5.44,1.12,2.24,1.68,5.16,1.68,8.76,0,6.31-1.62,10.89-4.86,13.74-3.24,2.85-7.93,4.28-14.07,4.28-2.89,0-5.45-.26-7.67-.79-2.22-.52-4.09-1.44-5.61-2.74-1.52-1.3-2.68-3-3.48-5.11-.8-2.1-1.2-4.7-1.2-7.8v-2.07h13.47v1.41c0,2.55.42,4.33,1.27,5.35.85,1.02,1.94,1.54,3.29,1.54,1.45,0,2.56-.55,3.33-1.66.77-1.11,1.16-2.46,1.16-4.07,0-1.94-.54-3.47-1.61-4.61-1.07-1.13-2.42-2.1-4.04-2.9-1.62-.8-3.38-1.62-5.28-2.45s-3.65-1.91-5.27-3.24c-1.62-1.33-2.97-3.07-4.04-5.23-1.07-2.16-1.61-4.98-1.61-8.47,0-6.03,1.45-10.62,4.34-13.78,2.89-3.15,7.28-4.73,13.17-4.73s10.49,1.45,13.21,4.36,4.08,7.54,4.08,13.9h-13.02v-1.41Z"/>
        <path class="cls-1" d="M199.68,23.16v-13.11h34.73v13.11h-10.48v46.15h-13.92V23.16h-10.33Z"/>
        <path class="cls-1" d="M233.36,10.05h15.04l5.24,20.67h.15l5.24-20.67h15.27l-13.62,35.94v23.32h-13.92v-23.32l-13.4-35.94Z"/>
        <path class="cls-1" d="M290.38,10.05v46.65h17.14v12.62h-31.06V10.05h13.92Z"/>
        <path class="cls-1" d="M342.77,10.05v12.62h-17.74v10.13h16.61v12.12h-16.61v11.79h18.41v12.62h-32.33V10.05h31.66Z"/>
      </g>
    </g>
  </g>
</svg>