<?xml version="1.0" encoding="UTF-8"?>
<svg xmlns="http://www.w3.org/2000/svg" version="1.1" viewBox="0 0 150 44.14">
  <defs>
    <style>
      .cls-1 {
        stroke: #1d3d6a;
        stroke-width: .89px;
      }

      .cls-1, .cls-2, .cls-3, .cls-4 {
        stroke-miterlimit: 10;
      }

      .cls-1, .cls-3, .cls-4 {
        fill: none;
      }

      .cls-2, .cls-5 {
        fill: #fff;
      }

      .cls-2, .cls-3 {
        stroke-width: .52px;
      }

      .cls-2, .cls-3, .cls-4 {
        stroke: #fff;
      }

      .cls-4 {
        stroke-width: 1.3px;
      }

      .cls-6 {
        fill: #1d3d6a;
      }
    </style>
  </defs>
  <!-- Generator: Adobe Illustrator 28.7.6, SVG Export Plug-In . SVG Version: 1.2.0 Build 188)  -->
  <g>
    <g id="Layer_1">
      <rect class="cls-6" x="-.1" y="-.06" width="150.3" height="44.09"/>
      <g>
        <path class="cls-5" d="M11.92,8.48c2.59-.43,10.19-2.26,13.22-2.16,4.14.13,13.22,2.49,13.22,2.49,0,0,.32,4.71-.16,9.73-.39,4.05-2.78,8-6.14,9.95-3.36,1.95-5.73,2.16-8.54,1.84-2.81-.32-8.23-3.11-10.06-7-2.38-5.05-1.54-14.84-1.54-14.84h0Z"/>
        <path class="cls-4" d="M9.81,6.45c3.08-.16,10.71-2.35,15.41-2.27s11.87,2.38,15.09,2.51c0,0,.66,7.24.02,12.95-.59,5.41-4.6,9.19-6.16,10.22-2.19,1.43-5.3,2.87-8.49,2.87-2.59,0-6.87-.87-10.17-3.57-3.3-2.7-4.43-5.76-4.82-6.98-1.3-4.11-.89-15.73-.89-15.73h0Z"/>
        <g>
          <path class="cls-1" d="M21.38,22.98c1.21.08,1.81.13,2.06.54s.35,1.97.76,2.46,1.3.62,1.87.13.3-1.35.54-2.25,1.89-.89,2.3-.89"/>
          <g>
            <path class="cls-1" d="M17.68,10.21c-.59,1.57-.76,3.95-.38,5.46.53,2.14,2,3.84,3.57,4.6s3.03.97,3.3,1.03"/>
            <path class="cls-1" d="M20.22,10.92c-.54.97-.81,1.54-1.46,2.06-.3.24-1.57.87-1.57.87"/>
            <path class="cls-1" d="M21.19,14.11c-.97,1.14-1.19,2.43-1.08,3.52s.59,2.38.59,2.38"/>
            <path class="cls-1" d="M22.7,18c-.51,1.4.4,3.06.4,3.06"/>
          </g>
          <g>
            <path class="cls-1" d="M32.59,10.54c.54,1.59.62,3.97.19,5.47-.61,2.12-2.13,3.77-3.73,4.47-1.59.7-3.06.87-3.33.91"/>
            <path class="cls-1" d="M30.02,11.15c.51.99.76,1.57,1.39,2.11.3.25,1.54.92,1.54.92"/>
            <path class="cls-1" d="M28.94,14.3c.93,1.17,1.11,2.47.96,3.55s-.68,2.36-.68,2.36"/>
            <path class="cls-1" d="M27.29,18.14c.46,1.42-.51,3.04-.51,3.04"/>
          </g>
        </g>
        <g>
          <path class="cls-2" d="M56.44,7.61l2.63,14.54h-3.45l-.51-3.24h-5.9l-1.99,3.24h-3.64l9.3-14.54h3.56ZM54.8,16.53l-.77-5.78h-.04l-3.4,5.78h4.22Z"/>
          <path class="cls-2" d="M62.77,22.15l-1.81-14.54h3.47l1.04,10.91h.04l5.99-10.91h3.6l-8.42,14.54h-3.91Z"/>
          <path class="cls-2" d="M74.7,12.7c.4-1.06.97-1.99,1.71-2.8s1.65-1.45,2.72-1.92c1.07-.47,2.26-.71,3.59-.71,1.06,0,2.02.13,2.89.4s1.6.66,2.21,1.19c.6.53,1.07,1.18,1.4,1.95.33.77.5,1.67.5,2.69,0,1.19-.19,2.34-.57,3.42-.38,1.09-.94,2.04-1.67,2.87-.73.83-1.63,1.48-2.69,1.96-1.07.48-2.29.72-3.68.72-2.24,0-3.96-.55-5.18-1.65-1.21-1.1-1.82-2.69-1.82-4.76,0-1.18.2-2.3.6-3.36ZM77.78,17.49c.14.45.35.85.64,1.19s.65.62,1.1.82c.45.2.99.31,1.62.31.85,0,1.6-.19,2.23-.56.63-.37,1.16-.86,1.59-1.45.43-.59.75-1.25.96-1.96.21-.72.32-1.43.32-2.12,0-.52-.06-1-.19-1.46-.13-.45-.33-.85-.61-1.19-.28-.34-.64-.61-1.08-.81s-.99-.31-1.63-.31c-.88,0-1.65.19-2.31.56-.66.37-1.19.86-1.61,1.45-.42.59-.73,1.25-.94,1.98-.21.73-.31,1.44-.31,2.13,0,.5.07.98.21,1.42Z"/>
          <path class="cls-2" d="M99.72,7.61c.61-.01,1.16.04,1.66.17.5.13.93.35,1.28.65.36.31.63.7.82,1.19.19.49.28,1.09.28,1.79,0,.49-.08.96-.23,1.4-.15.45-.37.84-.65,1.19-.28.35-.61.63-.99.87-.38.23-.8.38-1.25.45v.04c.56.19.93.52,1.12.99.19.47.28.99.28,1.58,0,.33-.02.72-.05,1.17-.03.45-.05.91-.05,1.35,0,.33.01.63.04.93.02.29.08.55.15.76h-2.91c-.04-.18-.07-.34-.1-.5-.03-.16-.04-.32-.04-.48,0-.49.03-.98.08-1.48.05-.5.08-.99.08-1.48,0-.35-.05-.64-.14-.87-.1-.22-.23-.4-.4-.54s-.38-.23-.62-.27c-.24-.05-.51-.07-.8-.07h-2.81l-1.12,5.68h-2.97l2.83-14.54h6.48ZM97.71,14.19c.41,0,.79-.04,1.16-.13.37-.09.69-.22.98-.41s.51-.42.68-.71.26-.64.26-1.05-.06-.71-.18-.95-.28-.42-.48-.54c-.2-.12-.44-.2-.7-.24s-.54-.06-.84-.06h-2.83l-.8,4.09h2.76Z"/>
          <path class="cls-2" d="M111.3,7.61l-3.34,14.54h-3.47l3.31-14.54h3.49Z"/>
          <path class="cls-2" d="M114.7,18.91,120.6,18.91,114.7,18.91l-1.99,3.24h-3.64l9.3-14.54h3.56l2.63,14.54h-3.45l-.51-3.24M120.6,18.91l-1.08-8.16h-.04l-4.77,8.16"/>
          <path class="cls-2" d="M136.41,10.3h-8.09l.64-2.69h12.46l-.58,2.57-10.62,9.28h8.9l-.57,2.69h-13.25l.6-2.65,10.51-9.2Z"/>
        </g>
        <line class="cls-3" x1="43.83" y1="27.7" x2="68.65" y2="27.7"/>
        <line class="cls-3" x1="81.56" y1="27.7" x2="115.45" y2="27.7"/>
        <g>
          <path class="cls-5" d="M44.49,31.07h1.77c.23,0,.42.02.58.07s.29.11.39.18.18.16.24.26c.06.1.1.19.12.29.02.1.04.19.04.29,0,.09,0,.18,0,.25,0,0,0,.04,0,.11,0,.07-.02.16-.06.26-.03.1-.08.21-.14.33s-.16.23-.28.33c-.12.1-.27.18-.45.25-.18.07-.41.1-.67.1h-1.32l-.35,1.69h-.77l.91-4.39ZM44.82,33.15h1.16c.17,0,.31-.03.43-.08.11-.05.2-.12.26-.2.06-.08.11-.17.14-.27.03-.1.04-.2.04-.3,0-.06,0-.13-.03-.2-.02-.07-.05-.14-.1-.2-.05-.06-.13-.11-.22-.15-.1-.04-.22-.06-.38-.06h-1l-.3,1.45Z"/>
          <path class="cls-5" d="M49.12,35.55c-.44,0-.79-.12-1.03-.36-.24-.24-.36-.58-.36-1.03,0-.26.04-.51.13-.75.09-.24.21-.44.37-.62.16-.18.35-.32.57-.43.22-.11.47-.16.75-.16.44,0,.79.12,1.03.35.24.23.36.57.36,1.02,0,.28-.04.54-.12.78-.08.24-.2.45-.36.63-.16.18-.35.32-.57.42-.22.1-.48.15-.76.15ZM49.5,32.75c-.18,0-.34.05-.47.14s-.25.2-.34.34-.16.29-.2.46c-.04.17-.06.33-.06.49,0,.23.06.43.18.58.12.16.3.23.56.23.18,0,.34-.04.47-.13.13-.09.25-.2.34-.34.09-.14.16-.29.2-.46.04-.17.06-.34.06-.5,0-.23-.06-.43-.18-.59-.12-.16-.3-.23-.56-.23Z"/>
          <path class="cls-5" d="M51.89,32.28h.66l-.13.62h.01c.05-.07.11-.16.18-.25.07-.09.15-.16.24-.23.09-.07.18-.12.28-.17.1-.04.21-.06.32-.06.06,0,.11,0,.17,0s.11,0,.17.02l-.15.67s-.08-.01-.12-.02-.08,0-.12,0c-.18,0-.34.03-.47.1s-.25.15-.34.26-.17.24-.22.38-.1.3-.14.46l-.3,1.41h-.7l.66-3.18Z"/>
          <path class="cls-5" d="M54.56,31.33h.68l-.2.95h.63l-.11.52h-.63l-.33,1.56c-.02.07-.03.14-.04.2-.01.06-.02.11-.02.15,0,.07.02.13.05.17.03.04.1.06.21.06.05,0,.11,0,.18,0s.13-.01.2-.03l-.12.52c-.09.02-.19.04-.29.05s-.2.02-.29.02c-.13,0-.23-.02-.31-.05-.08-.03-.15-.08-.19-.13s-.08-.12-.1-.19c-.02-.07-.03-.15-.03-.22,0-.06,0-.13.02-.2.01-.07.02-.13.03-.15l.36-1.74h-.55l.11-.52h.55l.2-.95Z"/>
          <path class="cls-5" d="M58.62,34.48c-.11.37-.3.65-.56.82-.26.17-.59.26-.97.26-.2,0-.39-.03-.56-.1-.17-.06-.32-.16-.44-.28-.12-.12-.22-.27-.29-.44-.07-.17-.1-.36-.1-.58,0-.25.04-.49.12-.72.08-.23.19-.44.34-.63s.33-.33.55-.45.47-.17.75-.17.51.05.69.14c.18.09.31.21.41.36s.17.3.2.47c.03.17.05.34.05.49,0,.08,0,.15-.01.22,0,.07-.02.13-.02.18h-2.37s0,.04,0,.06,0,.03,0,.05v.1c0,.22.06.4.18.54.12.14.31.2.58.2.19,0,.35-.04.49-.13.14-.09.23-.22.28-.39h.7ZM58.11,33.6s0-.04,0-.05v-.14c0-.19-.06-.34-.18-.46-.12-.12-.28-.18-.49-.18-.26,0-.47.08-.63.24-.16.16-.27.36-.34.61h1.63Z"/>
          <path class="cls-5" d="M61.23,33.21c0-.16-.06-.28-.18-.35-.12-.07-.27-.11-.46-.11-.07,0-.14,0-.2.02-.06.01-.12.03-.17.06-.05.03-.09.07-.12.12s-.05.12-.05.19c0,.07.03.13.08.18.06.05.13.08.22.12.09.03.19.07.3.1.11.03.22.07.33.11.09.04.19.08.28.12.09.05.17.1.24.17s.12.14.16.23.06.2.06.33c0,.18-.04.34-.12.47-.08.13-.19.24-.32.33-.13.09-.28.15-.45.19-.17.04-.34.06-.51.06-.18,0-.36-.02-.52-.05-.16-.04-.3-.09-.42-.18s-.21-.2-.28-.34c-.07-.14-.11-.32-.11-.54h.66c0,.2.06.34.19.43.14.08.31.13.51.13.07,0,.15,0,.23-.02.08-.01.15-.04.22-.07.07-.03.12-.08.16-.14.04-.06.06-.13.06-.22,0-.08-.03-.15-.09-.2-.06-.05-.14-.1-.23-.14-.09-.04-.2-.07-.31-.11-.12-.03-.23-.07-.34-.11-.09-.03-.18-.07-.27-.12-.08-.05-.16-.1-.22-.16-.07-.06-.12-.14-.15-.22s-.06-.19-.06-.31c0-.17.04-.32.11-.44.08-.12.18-.22.3-.3s.26-.14.42-.17.32-.06.48-.06c.17,0,.33.02.49.05.15.03.28.08.4.16.11.08.2.18.26.31.06.13.09.3.09.49h-.66Z"/>
          <path class="cls-5" d="M66.73,35.47h-.67l.1-.43h-.01c-.14.19-.29.33-.46.41-.17.07-.35.11-.54.11-.09,0-.21-.01-.34-.04-.14-.02-.28-.08-.41-.17-.13-.09-.25-.22-.34-.39s-.14-.41-.14-.71c0-.26.04-.51.12-.75.08-.24.19-.46.34-.66s.33-.35.54-.46c.21-.12.46-.18.73-.18.21,0,.41.04.58.12.17.08.3.21.38.41h.01l.35-1.65h.7l-.94,4.39ZM66.42,33.52c0-.1-.01-.2-.04-.3-.03-.09-.07-.18-.12-.24s-.13-.12-.22-.16c-.09-.04-.2-.06-.32-.06-.2,0-.37.04-.5.13-.14.09-.25.2-.34.35-.09.14-.16.3-.2.48-.04.18-.06.36-.06.53,0,.24.06.42.18.55s.3.2.55.2c.18,0,.34-.05.47-.14.14-.09.25-.21.34-.36s.16-.31.21-.48c.05-.17.07-.34.07-.5Z"/>
          <path class="cls-5" d="M70.31,35.47h-.66l.1-.46h-.01c-.13.16-.29.3-.48.4-.19.1-.4.15-.62.15-.32,0-.55-.08-.7-.23s-.22-.36-.22-.62c0-.06,0-.12,0-.2s.01-.14.02-.2l.42-2.03h.7l-.41,1.96c-.01.05-.02.1-.03.15-.01.05-.02.1-.02.14,0,.02,0,.06,0,.11,0,.05.02.1.05.15.03.05.08.1.14.13.07.04.16.06.3.06s.26-.03.37-.09c.11-.06.21-.14.3-.23.09-.09.16-.2.22-.32.06-.12.1-.24.12-.35l.36-1.72h.7l-.66,3.18Z"/>
          <path class="cls-5" d="M81.16,35.55c-.44,0-.79-.12-1.03-.36-.24-.24-.36-.58-.36-1.03,0-.26.04-.51.13-.75s.21-.44.37-.62c.16-.18.35-.32.57-.43.22-.11.47-.16.75-.16.44,0,.79.12,1.03.35.24.23.36.57.36,1.02,0,.28-.04.54-.12.78-.08.24-.2.45-.36.63-.16.18-.35.32-.57.42-.22.1-.48.15-.76.15ZM81.54,32.75c-.18,0-.34.05-.47.14s-.25.2-.34.34-.16.29-.2.46c-.04.17-.06.33-.06.49,0,.23.06.43.18.58.12.16.3.23.56.23.18,0,.34-.04.47-.13.13-.09.25-.2.34-.34.09-.14.16-.29.2-.46.04-.17.06-.34.06-.5,0-.23-.06-.43-.18-.59-.12-.16-.3-.23-.56-.23Z"/>
          <path class="cls-5" d="M84.18,31.07h.7l-.91,4.39h-.7l.91-4.39Z"/>
          <path class="cls-5" d="M87.81,34.48c-.11.37-.3.65-.56.82-.26.17-.59.26-.97.26-.2,0-.39-.03-.56-.1-.17-.06-.32-.16-.44-.28-.12-.12-.22-.27-.29-.44-.07-.17-.1-.36-.1-.58,0-.25.04-.49.12-.72.08-.23.19-.44.34-.63s.33-.33.55-.45c.22-.11.47-.17.75-.17s.51.05.69.14c.18.09.31.21.41.36.1.14.16.3.2.47.03.17.05.34.05.49,0,.08,0,.15-.01.22,0,.07-.02.13-.02.18h-2.37s0,.04,0,.06,0,.03,0,.05v.1c0,.22.06.4.18.54.12.14.31.2.58.2.19,0,.35-.04.49-.13.14-.09.23-.22.28-.39h.7ZM87.3,33.6s0-.04,0-.05v-.14c0-.19-.06-.34-.18-.46s-.28-.18-.49-.18c-.26,0-.47.08-.63.24-.16.16-.27.36-.34.61h1.63Z"/>
          <path class="cls-5" d="M88.83,32.28h.7l-.66,3.18h-.7l.66-3.18ZM89.09,31.07h.7l-.14.66h-.7l.14-.66Z"/>
          <path class="cls-5" d="M90.57,31.07h.7l-.91,4.39h-.7l.91-4.39Z"/>
        </g>
        <g>
          <path class="cls-5" d="M119.32,27.65c.2,0,.39-.02.57-.05.19-.03.35-.09.5-.17.15-.08.28-.19.39-.31.11-.13.18-.28.21-.47h.76v6.08h-1.03v-4.29h-1.41v-.78Z"/>
          <path class="cls-5" d="M125.73,32.84c-.29,0-.56-.04-.81-.13s-.46-.21-.64-.38c-.18-.16-.32-.37-.42-.6-.1-.24-.15-.5-.15-.8,0-.38.09-.7.28-.96.19-.26.44-.43.77-.52v-.02c-.26-.1-.46-.26-.6-.48-.14-.22-.21-.47-.21-.77,0-.52.15-.93.46-1.22s.75-.44,1.33-.44,1.02.15,1.33.44c.31.29.46.7.46,1.22,0,.3-.07.55-.21.77-.14.22-.34.38-.6.48v.02c.32.09.58.26.77.52.19.26.28.58.28.96,0,.3-.05.56-.15.8-.1.24-.24.44-.42.6-.18.16-.39.29-.64.38s-.52.13-.81.13ZM125.73,32.06c.31,0,.57-.1.78-.3.21-.2.31-.47.31-.83,0-.34-.1-.6-.31-.79-.21-.19-.47-.28-.78-.28s-.57.09-.78.28c-.21.19-.31.45-.31.79,0,.36.1.64.31.83.21.2.47.3.78.3ZM125.73,27.3c-.25,0-.47.08-.64.24-.18.16-.26.39-.26.69s.08.51.25.66.39.23.65.23.48-.08.65-.23c.17-.15.25-.37.25-.66s-.09-.53-.26-.69c-.18-.16-.39-.24-.64-.24Z"/>
          <path class="cls-5" d="M130.29,26.52c.41,0,.75.1,1.01.3.26.2.46.45.61.76.14.31.24.65.3,1.02.05.37.08.73.08,1.08s-.03.71-.08,1.08-.15.71-.3,1.02c-.15.31-.35.56-.61.76-.26.2-.59.3-1.01.3s-.75-.1-1.01-.3c-.26-.2-.46-.45-.61-.76-.15-.31-.24-.65-.3-1.02-.05-.37-.08-.73-.08-1.08s.03-.71.08-1.08c.05-.37.15-.71.3-1.02s.35-.56.61-.76c.26-.2.59-.3,1.01-.3ZM130.29,32.02c.2,0,.37-.06.51-.19.14-.12.24-.29.32-.5s.14-.46.17-.74c.03-.28.05-.58.05-.9s-.02-.62-.05-.9c-.03-.28-.09-.53-.17-.74-.08-.21-.19-.38-.32-.51-.14-.12-.31-.19-.51-.19s-.38.06-.51.19c-.13.12-.24.29-.32.51-.08.21-.14.46-.17.74s-.05.58-.05.9.02.62.05.9.09.53.17.74c.08.21.19.38.32.5.13.12.3.19.51.19Z"/>
          <path class="cls-5" d="M134.85,26.52c.41,0,.75.1,1.01.3.26.2.46.45.61.76.14.31.24.65.3,1.02.05.37.08.73.08,1.08s-.03.71-.08,1.08-.15.71-.3,1.02c-.15.31-.35.56-.61.76-.26.2-.59.3-1.01.3s-.75-.1-1.01-.3c-.26-.2-.46-.45-.61-.76-.15-.31-.24-.65-.3-1.02-.05-.37-.08-.73-.08-1.08s.03-.71.08-1.08c.05-.37.15-.71.3-1.02s.35-.56.61-.76c.26-.2.59-.3,1.01-.3ZM134.85,32.02c.2,0,.37-.06.51-.19.14-.12.24-.29.32-.5s.14-.46.17-.74c.03-.28.05-.58.05-.9s-.02-.62-.05-.9c-.03-.28-.09-.53-.17-.74-.08-.21-.19-.38-.32-.51-.14-.12-.31-.19-.51-.19s-.38.06-.51.19c-.13.12-.24.29-.32.51-.08.21-.14.46-.17.74s-.05.58-.05.9.02.62.05.9.09.53.17.74c.08.21.19.38.32.5.13.12.3.19.51.19Z"/>
        </g>
        <path class="cls-5" d="M69.54,36.52c0,1.19,2.85,2.46,4.73,2.46,1.75,0,3.77-1.04,3.77-2.14,0-2.08-6.64-4.43-6.64-6.84,0-1.68.51-3.29,2-3.29,1.17,0,2.94.31,2.94,1.47,0,.86-.64,1.43-1.21,1.43-.49,0-.03-.66.12-1.33,0,0,.67,0,.03-.68-.52-.54-1.53-.58-2.11-.58-.66,0-.67.65-.67,1.43,0,1.72,6.96,4.1,6.96,6.96,0,2.05-2.99,3.61-5.22,3.61-1.93,0-5.1-1.14-5.1-2.46"/>
        <path class="cls-5" d="M70.68,36.98c.14-.12.27-.19.4-.2s.24.03.33.12c.08.08.13.17.13.27,0,.1-.04.19-.13.27-.03.03-.07.05-.12.07-.05.02-.1.03-.15.02,0,.12.04.23.11.34.07.11.16.21.27.3.14.13.32.23.53.28s1.79,1.13,2.04,1.09c.24-.03.49-.11.75-.23.26-.12,1.62-.13,1.86-.35.41-.36.67-.75.77-1.16.11-.41.12-.82.02-1.22-.1-.4-.27-.79-.52-1.16-.25-.37-.53-.7-.83-.99-.49-.46-3.6-3.09-3.9-3.54s-.49-.89-.58-1.3c-.09-.42-.08-.81.04-1.2.12-.38.36-.73.71-1.04.32-.28.65-.45.99-.49.34-.05.94,0,1.17.21.18.16.75.3.71.5-.05.2-.16.39-.35.55-.03-.15-.07-.27-.13-.39-.06-.11-.86-.02-.99-.14-.2-.18-.53-.39-.75-.37s-.42.11-.6.27c-.23.21-.39.43-.47.65-.08.23-.1.46-.06.7.04.24.12.48.25.73.13.25.29.49.47.74.18.24.38.49.6.73.22.24,3.16,2.64,3.37,2.87.53.56.9,1.1,1.09,1.6.2.5.28.97.25,1.41-.04.43-.17.83-.4,1.2s-.51.7-.85.99c-.27.24-1.67.27-1.97.4s-.61.19-.91.21c-.3.01-1.96-1.09-2.24-1.19-.28-.1-.54-.26-.77-.48-.19-.18-.31-.37-.34-.57-.03-.2.03-.37.19-.51Z"/>
        <path class="cls-5" d="M71.04,37.69c.13-.13.26-.21.38-.23s.24.02.35.1c.09.07.15.16.16.26.01.1-.02.2-.1.29-.03.03-.07.06-.12.08-.05.03-.1.04-.15.03.01.12.06.23.15.34.09.1.19.2.3.29.16.12,1.71,1.27,1.93,1.31s.45.04.69-.01c.24-.05,1.6,0,1.85-.14.25-.14.49-.33.71-.56.38-.4.6-.81.67-1.23.07-.42.04-.83-.1-1.24-.14-.4-.35-.78-.64-1.14-.29-.36-.6-.67-.93-.94-.54-.43-.98-.87-1.33-1.3s-3.31-3.03-3.44-3.44c-.13-.42-.16-.82-.07-1.22.09-.4.3-.76.62-1.11.3-.31.61-.5.95-.57.34-.07.64,0,.89.19.2.15,1.1.25,1.08.46-.03.21-.95.49-1.12.67-.04-.15-.1-.27-.17-.38-.07-.11-.18-.22-.32-.33-.22-.17-.44-.24-.67-.2s-.42.14-.58.31c-.22.23-.35.46-.41.69-.06.24-.06.47,0,.71.06.24.17.48.33.72.16.24.34.48.55.71.21.23,3.16,2.63,3.41,2.86.24.23.49.45.73.67.59.53,1.02,1.05,1.27,1.54.25.5.38.96.39,1.41,0,.44-.09.86-.29,1.24s-.45.74-.76,1.07c-.25.26-.53.47-.82.62s-1.71.09-2.02.13c-.31.04-1.97-1.05-2.27-1.13-.3-.08-.57-.22-.83-.43-.22-.17-.35-.35-.4-.56-.05-.2,0-.38.14-.53Z"/>
      </g>
    </g>
  </g>
</svg>