<?xml version="1.0" encoding="UTF-8"?>
<svg xmlns="http://www.w3.org/2000/svg" version="1.1" viewBox="0 0 150 50">
  <defs>
    <style>
      .cls-1, .cls-2, .cls-3 {
        fill: none;
      }

      .cls-1, .cls-2, .cls-3, .cls-4 {
        stroke-miterlimit: 10;
      }

      .cls-1, .cls-2, .cls-4 {
        stroke: #fff;
      }

      .cls-2 {
        stroke-width: 2.5px;
      }

      .cls-3 {
        stroke: #231f20;
        stroke-linecap: round;
      }

      .cls-5, .cls-4 {
        fill: #fff;
      }
    </style>
  </defs>
  <!-- Generator: Adobe Illustrator 28.7.5, SVG Export Plug-In . SVG Version: 1.2.0 Build 176)  -->
  <g>
    <g id="Layer_1">
      <path class="cls-5" d="M5.26,9.6c2.88-.48,11.3-2.51,14.66-2.4,4.59.15,14.66,2.76,14.66,2.76,0,0,.36,5.22-.18,10.8-.44,4.5-3.09,8.87-6.81,11.03s-6.36,2.4-9.48,2.04-9.12-3.45-11.15-7.76c-2.64-5.61-1.71-16.46-1.71-16.46h.01Z"/>
      <path class="cls-2" d="M2.92,7.35c3.42-.18,11.87-2.61,17.09-2.52s13.16,2.64,16.73,2.79c0,0,.73,8.03.03,14.36-.66,6-5.1,10.19-6.84,11.33-2.43,1.59-5.88,3.18-9.42,3.18-2.88,0-7.62-.96-11.28-3.96-3.66-3-4.91-6.39-5.34-7.74-1.44-4.56-.99-17.45-.99-17.45h0Z"/>
      <path class="cls-3" d="M24.1,25.68c-.45,0-2.28,0-2.55.99s.03,1.95-.6,2.49-1.62.39-2.07-.15-.57-2.28-.84-2.73-.93-.51-2.28-.6"/>
      <g>
        <path class="cls-3" d="M11.65,11.53c-.43,1.13-.65,2.65-.64,4.03,0,.74.08,1.44.22,2.03.59,2.37,2.22,4.26,3.96,5.1s3.36,1.08,3.66,1.14"/>
        <path class="cls-3" d="M14.46,12.31c-.6,1.08-.9,1.71-1.62,2.28-.34.27-1.74.96-1.74.96"/>
        <path class="cls-3" d="M15.54,15.85c-1.08,1.26-1.32,2.7-1.2,3.9s.66,2.64.66,2.64"/>
        <path class="cls-3" d="M17.22,20.16c-.57,1.56.45,3.39.45,3.39"/>
      </g>
      <g>
        <path class="cls-3" d="M28.18,11.89c.6,1.76.68,4.41.21,6.07-.67,2.35-2.36,4.18-4.14,4.95-1.77.78-3.4.96-3.69,1.01"/>
        <path class="cls-3" d="M25.34,12.57c.56,1.1.84,1.74,1.54,2.34.33.28,1.71,1.02,1.71,1.02"/>
        <path class="cls-3" d="M24.14,16.06c1.03,1.3,1.23,2.74,1.06,3.94s-.75,2.61-.75,2.61"/>
        <path class="cls-3" d="M22.31,20.32c.51,1.58-.57,3.37-.57,3.37"/>
      </g>
      <g>
        <path class="cls-4" d="M54.63,8.64l2.92,16.12h-3.82l-.56-3.59h-6.54l-2.2,3.59h-4.04l10.31-16.12h3.94ZM52.82,18.54l-.86-6.41h-.05l-3.77,6.41h4.68Z"/>
        <path class="cls-4" d="M61.66,24.77l-2.01-16.12h3.85l1.15,12.1h.05l6.64-12.1h3.99l-9.33,16.12h-4.34Z"/>
        <path class="cls-4" d="M74.89,14.29c.44-1.17,1.07-2.21,1.9-3.1s1.83-1.61,3.01-2.13c1.18-.53,2.51-.79,3.98-.79,1.17,0,2.25.15,3.21.44s1.78.73,2.45,1.32c.67.59,1.19,1.31,1.56,2.17.37.86.55,1.85.55,2.98,0,1.33-.21,2.59-.64,3.79-.42,1.2-1.04,2.27-1.85,3.18-.81.92-1.81,1.64-2.99,2.18-1.18.53-2.54.8-4.08.8-2.48,0-4.4-.61-5.74-1.83-1.35-1.22-2.02-2.98-2.02-5.28,0-1.31.22-2.55.66-3.73ZM78.31,19.6c.15.5.39.94.71,1.32s.73.69,1.23.91c.5.23,1.1.34,1.8.34.95,0,1.77-.21,2.47-.62.7-.41,1.29-.95,1.76-1.6.47-.65.83-1.38,1.07-2.18.24-.8.36-1.58.36-2.35,0-.57-.07-1.11-.21-1.61-.14-.5-.36-.94-.67-1.32-.31-.38-.71-.68-1.2-.9s-1.09-.34-1.81-.34c-.98,0-1.83.21-2.56.62-.73.41-1.32.95-1.79,1.6-.46.65-.81,1.39-1.04,2.19-.23.81-.34,1.59-.34,2.36,0,.56.08,1.08.23,1.58Z"/>
        <path class="cls-4" d="M102.64,8.64c.67-.02,1.29.05,1.84.19.55.14,1.03.38,1.42.72.39.34.7.78.91,1.32.21.54.32,1.2.32,1.99,0,.54-.08,1.06-.25,1.56-.17.5-.41.94-.72,1.32-.31.38-.68.7-1.1.96-.42.26-.89.42-1.39.5v.05c.62.21,1.03.58,1.24,1.1.21.52.32,1.1.32,1.75,0,.36-.02.79-.05,1.3-.03.5-.05,1-.05,1.5,0,.36.01.7.04,1.03.03.32.08.61.17.85h-3.23c-.04-.2-.08-.38-.11-.55-.03-.17-.04-.35-.04-.53,0-.54.03-1.09.08-1.64.06-.55.08-1.1.08-1.64,0-.39-.05-.71-.16-.96-.11-.25-.25-.45-.44-.6s-.42-.25-.68-.3c-.27-.05-.56-.08-.89-.08h-3.12l-1.24,6.3h-3.29l3.14-16.12h7.19ZM100.4,15.94c.45,0,.88-.05,1.29-.15.41-.1.77-.25,1.09-.45s.57-.47.76-.79.28-.71.28-1.16-.07-.79-.2-1.05-.31-.46-.54-.6c-.23-.14-.48-.23-.78-.27s-.6-.07-.93-.07h-3.14l-.89,4.54h3.06Z"/>
        <path class="cls-4" d="M115.48,8.64l-3.7,16.12h-3.85l3.67-16.12h3.87Z"/>
        <path class="cls-4" d="M119.25,21.18,125.79,21.18,119.25,21.18l-2.2,3.59h-4.04l10.31-16.12h3.94l2.92,16.12h-3.82l-.56-3.59M125.79,21.18l-1.2-9.06h-.05l-5.29,9.06"/>
        <path class="cls-4" d="M143.33,11.63h-8.97l.71-2.98h13.82l-.64,2.85-11.78,10.3h9.87l-.64,2.98h-14.7l.66-2.94,11.66-10.21Z"/>
      </g>
      <line class="cls-1" x1="40.66" y1="30.92" x2="68.17" y2="30.92"/>
      <line class="cls-1" x1="82.49" y1="30.92" x2="120.08" y2="30.92"/>
      <g>
        <path class="cls-5" d="M41.38,34.66h1.96c.25,0,.47.03.64.08s.32.12.43.2.2.18.26.29c.06.11.11.22.13.32.03.11.04.22.05.32,0,.1,0,.2,0,.27,0,0,0,.05-.01.12,0,.08-.03.17-.06.28-.03.11-.09.23-.16.36s-.18.25-.31.36c-.13.11-.3.2-.5.28-.2.07-.45.11-.75.11h-1.46l-.39,1.87h-.85l1.01-4.87ZM41.75,36.97h1.29c.19,0,.35-.03.47-.09.13-.06.22-.13.29-.22.07-.09.12-.19.15-.3.03-.11.04-.22.04-.33,0-.07-.01-.14-.03-.22-.02-.08-.06-.15-.12-.22-.06-.07-.14-.12-.25-.17-.11-.04-.25-.06-.42-.06h-1.11l-.33,1.61Z"/>
        <path class="cls-5" d="M46.52,39.63c-.49,0-.87-.13-1.14-.4-.27-.27-.4-.65-.4-1.14,0-.29.05-.57.14-.83.1-.26.23-.49.41-.69.17-.2.39-.36.63-.48.25-.12.52-.18.83-.18.49,0,.87.13,1.14.39.27.26.4.63.4,1.13,0,.31-.05.6-.14.87-.09.27-.22.5-.4.7-.18.2-.39.35-.63.47-.25.11-.53.17-.84.17ZM46.94,36.52c-.2,0-.37.05-.52.15s-.27.23-.37.38-.17.32-.22.51c-.05.19-.07.37-.07.55,0,.26.06.48.19.65.13.17.34.26.62.26.2,0,.37-.05.52-.15.15-.1.27-.22.37-.38.1-.15.17-.32.22-.51.05-.19.07-.37.07-.55,0-.26-.06-.48-.19-.65-.13-.17-.34-.26-.62-.26Z"/>
        <path class="cls-5" d="M49.59,36h.74l-.14.69h.01c.05-.08.12-.18.2-.27.08-.1.17-.18.26-.26.1-.08.2-.14.31-.18.11-.05.23-.07.35-.07.06,0,.13,0,.19,0s.12,0,.19.02l-.16.74s-.09-.02-.14-.02-.09,0-.14,0c-.2,0-.37.03-.52.11s-.27.17-.38.29-.19.26-.25.42-.11.33-.15.51l-.33,1.56h-.78l.73-3.53Z"/>
        <path class="cls-5" d="M52.55,34.95h.76l-.22,1.06h.7l-.12.58h-.7l-.36,1.73c-.02.08-.03.15-.05.22-.01.07-.02.12-.02.16,0,.08.02.14.05.19.03.05.11.07.23.07.06,0,.12,0,.19,0s.14-.01.22-.03l-.13.57c-.1.02-.21.04-.32.05s-.22.02-.32.02c-.14,0-.26-.02-.35-.05-.09-.04-.16-.09-.22-.15s-.09-.13-.11-.21c-.02-.08-.03-.16-.03-.24,0-.07,0-.14.02-.23.01-.08.02-.14.03-.17l.4-1.93h-.61l.12-.58h.61l.22-1.06Z"/>
        <path class="cls-5" d="M57.05,38.44c-.12.41-.33.72-.62.9-.29.19-.65.28-1.08.28-.22,0-.43-.03-.62-.11-.19-.07-.35-.17-.49-.31-.14-.13-.24-.3-.32-.48-.08-.19-.12-.4-.12-.65,0-.27.04-.54.13-.8.09-.26.21-.49.38-.7s.37-.37.61-.49.52-.19.84-.19.57.05.76.16c.2.1.35.24.46.4s.18.33.22.53c.04.19.06.37.06.55,0,.09,0,.17-.01.24,0,.07-.02.14-.03.2h-2.63s0,.04-.01.06,0,.04,0,.05v.11c0,.25.06.44.19.59.13.15.34.23.65.23.21,0,.39-.05.54-.14.15-.1.25-.24.31-.43h.78ZM56.49,37.46s0-.04,0-.06v-.16c0-.21-.07-.38-.2-.52-.13-.13-.31-.2-.55-.2-.29,0-.52.09-.7.26-.17.18-.3.4-.38.67h1.81Z"/>
        <path class="cls-5" d="M59.95,37.03c0-.18-.07-.31-.2-.39-.13-.08-.3-.12-.51-.12-.08,0-.15,0-.22.02-.07.01-.13.04-.19.07-.06.03-.1.08-.14.14s-.05.13-.05.22c0,.08.03.15.09.2.06.05.14.09.24.13.1.04.21.08.33.11.12.03.25.07.37.12.1.04.21.09.31.14.1.05.19.11.26.18s.14.16.18.26.07.22.07.36c0,.2-.05.38-.14.53-.09.15-.21.27-.35.36-.15.1-.31.16-.5.21-.19.04-.38.06-.57.06-.2,0-.4-.02-.57-.06-.18-.04-.33-.1-.46-.2s-.24-.22-.31-.38c-.08-.16-.12-.36-.12-.6h.74c0,.22.06.38.21.47.15.09.34.14.57.14.08,0,.17,0,.25-.02.09-.02.17-.04.24-.08.07-.04.13-.09.18-.15.05-.07.07-.15.07-.25,0-.09-.03-.17-.1-.23-.07-.06-.15-.11-.25-.15-.1-.04-.22-.08-.35-.12-.13-.04-.26-.08-.38-.12-.1-.04-.2-.08-.3-.13-.09-.05-.18-.11-.25-.18-.07-.07-.13-.15-.17-.25s-.06-.21-.06-.34c0-.19.04-.35.13-.49.08-.14.19-.25.33-.33s.29-.15.46-.19.35-.06.53-.06c.19,0,.37.02.54.05.17.03.32.09.44.18.13.09.22.2.29.35.07.15.1.33.1.55h-.74Z"/>
        <path class="cls-5" d="M66.04,39.53h-.74l.11-.48h-.01c-.15.21-.33.37-.51.45-.19.08-.38.12-.59.12-.1,0-.23-.01-.38-.04-.15-.03-.31-.09-.45-.19-.15-.1-.27-.24-.38-.43s-.16-.45-.16-.79c0-.29.04-.57.13-.84.09-.27.21-.51.38-.73s.36-.39.6-.52c.24-.13.51-.19.81-.19.24,0,.45.04.64.13.19.09.33.24.42.45h.01l.39-1.83h.78l-1.04,4.87ZM65.71,37.37c0-.11-.01-.22-.04-.33-.03-.1-.08-.19-.14-.27s-.14-.14-.24-.18c-.1-.05-.22-.07-.35-.07-.22,0-.4.05-.56.15-.15.1-.28.23-.38.39-.1.16-.17.34-.22.54-.05.2-.07.39-.07.59,0,.26.07.47.2.61s.33.22.61.22c.2,0,.38-.05.53-.16.15-.1.28-.24.38-.4s.18-.34.23-.53c.05-.19.08-.38.08-.56Z"/>
        <path class="cls-5" d="M70.01,39.53h-.73l.11-.51h-.01c-.14.18-.32.33-.53.44-.21.11-.44.16-.69.16-.35,0-.62-.08-.78-.25s-.25-.4-.25-.68c0-.06,0-.14,0-.22s.01-.15.03-.22l.47-2.25h.78l-.45,2.18c-.01.06-.03.12-.04.17-.01.05-.02.11-.02.16,0,.03,0,.07,0,.13,0,.06.02.11.05.17.03.06.08.11.16.15.07.04.18.06.33.06s.29-.03.41-.1c.13-.07.24-.15.33-.26.1-.1.18-.22.24-.35.06-.13.11-.26.14-.39l.4-1.91h.78l-.73,3.53Z"/>
        <path class="cls-5" d="M82.05,39.63c-.49,0-.87-.13-1.14-.4-.27-.27-.4-.65-.4-1.14,0-.29.05-.57.14-.83s.23-.49.41-.69c.17-.2.39-.36.63-.48.25-.12.52-.18.83-.18.49,0,.87.13,1.14.39.27.26.4.63.4,1.13,0,.31-.05.6-.14.87-.09.27-.22.5-.4.7-.17.2-.39.35-.63.47-.25.11-.53.17-.84.17ZM82.47,36.52c-.2,0-.37.05-.52.15s-.27.23-.37.38-.17.32-.22.51c-.05.19-.07.37-.07.55,0,.26.06.48.19.65.13.17.34.26.62.26.2,0,.37-.05.52-.15.15-.1.27-.22.37-.38.1-.15.17-.32.22-.51.05-.19.07-.37.07-.55,0-.26-.06-.48-.19-.65-.13-.17-.34-.26-.62-.26Z"/>
        <path class="cls-5" d="M85.4,34.66h.78l-1.01,4.87h-.78l1.01-4.87Z"/>
        <path class="cls-5" d="M89.43,38.44c-.12.41-.33.72-.62.9-.29.19-.65.28-1.08.28-.22,0-.43-.03-.62-.11-.19-.07-.35-.17-.49-.31-.14-.13-.24-.3-.32-.48-.08-.19-.12-.4-.12-.65,0-.27.04-.54.13-.8.09-.26.21-.49.38-.7s.37-.37.61-.49c.24-.13.52-.19.84-.19s.57.05.76.16c.2.1.35.24.46.4.11.16.18.33.22.53.04.19.06.37.06.55,0,.09,0,.17-.01.24s-.02.14-.03.2h-2.63s0,.04-.01.06,0,.04,0,.05v.11c0,.25.06.44.19.59.13.15.34.23.65.23.21,0,.39-.05.54-.14.15-.1.25-.24.31-.43h.78ZM88.86,37.46s0-.04,0-.06v-.16c0-.21-.07-.38-.2-.52s-.31-.2-.55-.2c-.29,0-.52.09-.7.26-.17.18-.3.4-.38.67h1.81Z"/>
        <path class="cls-5" d="M90.56,36h.78l-.73,3.53h-.78l.73-3.53ZM90.84,34.66h.77l-.15.74h-.77l.15-.74Z"/>
        <path class="cls-5" d="M92.49,34.66h.78l-1.01,4.87h-.78l1.01-4.87Z"/>
      </g>
      <g>
        <path class="cls-5" d="M124.37,30.87c.22,0,.43-.02.64-.06.21-.04.39-.1.56-.19.17-.09.31-.21.43-.35.12-.14.2-.31.23-.52h.85v6.74h-1.14v-4.76h-1.56v-.87Z"/>
        <path class="cls-5" d="M131.48,36.62c-.32,0-.62-.05-.9-.14s-.51-.24-.71-.42c-.2-.18-.36-.41-.47-.67-.11-.26-.17-.56-.17-.89,0-.42.1-.78.31-1.07.21-.29.49-.48.85-.58v-.02c-.29-.12-.51-.29-.67-.53-.15-.24-.23-.52-.23-.85,0-.58.17-1.03.51-1.35s.83-.49,1.47-.49,1.13.16,1.47.49c.34.32.51.77.51,1.35,0,.33-.08.61-.23.85-.15.24-.38.42-.67.53v.02c.36.1.64.29.85.58.21.29.31.65.31,1.07,0,.33-.06.62-.17.89-.11.26-.27.49-.47.67-.2.18-.44.32-.71.42s-.58.14-.9.14ZM131.48,35.76c.35,0,.63-.11.86-.33.23-.22.35-.53.35-.92,0-.37-.12-.66-.35-.87-.23-.21-.52-.31-.86-.31s-.63.1-.86.31c-.23.21-.35.5-.35.87,0,.4.12.71.35.92.23.22.52.33.86.33ZM131.48,30.48c-.28,0-.52.09-.71.27-.19.18-.29.43-.29.77s.09.57.28.74.43.26.72.26.53-.09.72-.26c.19-.17.28-.42.28-.74s-.1-.59-.29-.77c-.19-.18-.43-.27-.71-.27Z"/>
        <path class="cls-5" d="M136.54,29.61c.45,0,.83.11,1.11.33.29.22.51.5.67.85.16.34.27.72.33,1.13.06.41.09.81.09,1.19s-.03.78-.09,1.19-.17.79-.33,1.13c-.16.34-.39.63-.67.85-.29.22-.66.33-1.11.33s-.83-.11-1.11-.33c-.29-.22-.51-.5-.67-.85-.16-.34-.27-.72-.33-1.13-.06-.41-.09-.81-.09-1.19s.03-.78.09-1.19c.06-.41.17-.79.33-1.13s.38-.63.67-.85c.29-.22.66-.33,1.11-.33ZM136.54,35.71c.22,0,.41-.07.56-.21.15-.14.27-.32.36-.56s.15-.51.19-.82c.04-.31.05-.65.05-1s-.02-.69-.05-1c-.04-.31-.1-.59-.19-.82-.09-.24-.21-.42-.36-.56-.15-.14-.34-.21-.56-.21s-.42.07-.57.21c-.15.14-.27.33-.35.56-.09.24-.15.51-.19.82s-.05.64-.05,1,.02.69.05,1,.1.59.19.82c.09.23.21.42.35.56.15.14.34.21.57.21Z"/>
        <path class="cls-5" d="M141.6,29.61c.45,0,.83.11,1.11.33.29.22.51.5.67.85.16.34.27.72.33,1.13.06.41.09.81.09,1.19s-.03.78-.09,1.19-.17.79-.33,1.13c-.16.34-.39.63-.67.85-.29.22-.66.33-1.11.33s-.83-.11-1.11-.33c-.29-.22-.51-.5-.67-.85-.16-.34-.27-.72-.33-1.13-.06-.41-.09-.81-.09-1.19s.03-.78.09-1.19c.06-.41.17-.79.33-1.13s.38-.63.67-.85c.29-.22.66-.33,1.11-.33ZM141.6,35.71c.22,0,.41-.07.56-.21.15-.14.27-.32.36-.56s.15-.51.19-.82c.04-.31.05-.65.05-1s-.02-.69-.05-1c-.04-.31-.1-.59-.19-.82-.09-.24-.21-.42-.36-.56-.15-.14-.34-.21-.56-.21s-.42.07-.57.21c-.15.14-.27.33-.35.56-.09.24-.15.51-.19.82s-.05.64-.05,1,.02.69.05,1,.1.59.19.82c.09.23.21.42.35.56.15.14.34.21.57.21Z"/>
      </g>
      <path class="cls-5" d="M69.17,40.71c0,1.32,3.16,2.73,5.25,2.73,1.94,0,4.18-1.15,4.18-2.37,0-2.31-7.36-4.91-7.36-7.59,0-1.86.57-3.65,2.22-3.65,1.3,0,3.26.34,3.26,1.63,0,.95-.71,1.59-1.34,1.59-.55,0-.03-.73.13-1.48,0,0,.75,0,.03-.76-.58-.6-1.7-.65-2.33-.65-.74,0-.74.72-.74,1.58,0,1.91,7.72,4.55,7.72,7.72,0,2.27-3.31,4-5.79,4-2.14,0-5.66-1.26-5.66-2.73"/>
      <path class="cls-5" d="M70.43,41.22c.15-.14.3-.21.44-.22s.26.04.37.13c.09.09.14.18.15.3,0,.11-.04.21-.14.3-.03.03-.08.06-.14.08-.06.02-.11.03-.16.02,0,.13.04.26.12.38.08.12.18.23.3.34.16.15.36.25.59.32s1.99,1.25,2.26,1.21c.27-.04.54-.12.83-.25.29-.13,1.79-.15,2.06-.39.45-.4.74-.83.86-1.28.12-.45.13-.9.02-1.35-.11-.45-.3-.88-.58-1.29-.28-.41-.58-.78-.92-1.1-.54-.51-4-3.42-4.33-3.92s-.54-.98-.65-1.44c-.1-.46-.09-.9.05-1.33.14-.42.4-.81.79-1.16.35-.31.72-.5,1.09-.55.38-.05,1.04,0,1.29.23.2.18.83.33.78.56-.05.22-.18.43-.38.61-.03-.16-.08-.3-.14-.43-.06-.12-.95-.02-1.1-.15-.22-.2-.59-.44-.84-.41s-.47.12-.66.29c-.26.23-.43.47-.52.72-.09.25-.11.51-.07.77.04.27.13.54.28.81.15.27.32.54.52.82.2.27.43.54.67.8.24.27,3.5,2.93,3.74,3.19.59.63.99,1.22,1.21,1.78.22.56.31,1.08.27,1.56-.04.48-.19.92-.44,1.33s-.57.77-.94,1.1c-.3.27-1.85.3-2.19.44s-.68.22-1.01.23c-.34.01-2.17-1.21-2.48-1.32-.31-.11-.6-.29-.86-.53-.22-.2-.34-.41-.38-.64-.04-.22.03-.41.21-.57Z"/>
      <path class="cls-5" d="M70.83,42c.14-.15.28-.23.43-.25s.27.02.39.11c.1.08.16.18.18.29.02.11-.02.22-.11.32-.03.03-.08.06-.13.09-.06.03-.11.04-.16.03.01.14.07.26.16.37.09.11.21.22.34.32.18.14,1.9,1.4,2.14,1.45s.49.04.76-.02c.27-.06,1.77,0,2.05-.15.28-.16.54-.36.79-.62.42-.44.67-.9.75-1.36.08-.47.04-.93-.11-1.37-.15-.44-.39-.87-.71-1.26-.32-.4-.67-.75-1.04-1.04-.6-.48-1.09-.96-1.47-1.44s-3.67-3.36-3.82-3.82c-.15-.46-.18-.91-.08-1.35.1-.44.33-.85.69-1.23.33-.34.68-.55,1.06-.63.38-.08.71,0,.99.21.22.17,1.23.28,1.19.51-.03.23-1.05.54-1.24.74-.05-.16-.11-.3-.18-.42-.08-.12-.19-.24-.36-.37-.25-.19-.49-.26-.74-.22s-.46.16-.64.35c-.24.25-.39.51-.46.77-.06.26-.06.52,0,.79.07.27.19.53.36.8.17.27.38.53.61.79.23.26,3.51,2.92,3.78,3.17.27.25.54.5.81.74.66.59,1.13,1.16,1.41,1.71.28.55.42,1.07.43,1.56,0,.49-.1.95-.32,1.38s-.5.82-.85,1.19c-.28.29-.58.52-.91.69s-1.9.1-2.24.14c-.34.04-2.18-1.16-2.51-1.25-.33-.09-.63-.25-.92-.47-.24-.19-.39-.39-.44-.62-.06-.23,0-.42.15-.59Z"/>
    </g>
  </g>
</svg>