<?xml version="1.0" encoding="UTF-8"?>
<svg xmlns="http://www.w3.org/2000/svg" version="1.1" viewBox="0 0 150 44.14">
  <defs>
    <style>
      .cls-1 {
        stroke: #1b3d6a;
        stroke-width: 1.47px;
      }

      .cls-1, .cls-2, .cls-3, .cls-4 {
        stroke-miterlimit: 10;
      }

      .cls-1, .cls-3, .cls-4 {
        fill: none;
      }

      .cls-2, .cls-4 {
        stroke: #1c3d6a;
        stroke-width: .59px;
      }

      .cls-2, .cls-5 {
        fill: #1c3d6a;
      }

      .cls-3 {
        stroke: #fff;
        stroke-linecap: round;
        stroke-width: 1.02px;
      }
    </style>
  </defs>
  <!-- Generator: Adobe Illustrator 28.7.5, SVG Export Plug-In . SVG Version: 1.2.0 Build 176)  -->
  <g>
    <g id="Layer_1">
      <g>
        <path class="cls-5" d="M3.66,6.69c2.93-.49,11.52-2.55,14.94-2.44,4.67.15,14.94,2.81,14.94,2.81,0,0,.37,5.32-.19,11-.44,4.58-3.14,9.04-6.94,11.24s-6.48,2.44-9.65,2.08c-3.18-.37-9.29-3.51-11.36-7.91-2.69-5.71-1.74-16.77-1.74-16.77h.01Z"/>
        <path class="cls-1" d="M1.27,4.4c3.48-.19,12.1-2.66,17.41-2.57s13.41,2.69,17.05,2.84c0,0,.74,8.18.03,14.63-.67,6.11-5.19,10.39-6.96,11.54-2.48,1.62-5.99,3.24-9.59,3.24-2.93,0-7.76-.98-11.49-4.03-3.73-3.05-5.01-6.51-5.44-7.88C.8,17.53,1.27,4.4,1.27,4.4h0Z"/>
      </g>
      <g>
        <path class="cls-3" d="M14.34,23.07c1.37.09,2.05.15,2.32.61s.4,2.23.86,2.78,1.47.7,2.11.15.34-1.52.61-2.54,2.14-1.01,2.6-1.01"/>
        <g>
          <path class="cls-3" d="M10.16,8.65c-.67,1.77-.86,4.46-.43,6.17.6,2.41,2.26,4.34,4.03,5.19s3.42,1.1,3.72,1.16"/>
          <path class="cls-3" d="M13.03,9.44c-.61,1.1-.92,1.74-1.65,2.32-.34.28-1.77.98-1.77.98"/>
          <path class="cls-3" d="M14.13,13.05c-1.1,1.28-1.34,2.75-1.22,3.97s.67,2.69.67,2.69"/>
          <path class="cls-3" d="M15.84,17.45c-.58,1.59.46,3.45.46,3.45"/>
        </g>
        <g>
          <path class="cls-3" d="M27.01,9.02c.61,1.79.7,4.49.21,6.18-.69,2.39-2.41,4.26-4.21,5.05-1.8.79-3.46.98-3.76,1.03"/>
          <path class="cls-3" d="M24.11,9.71c.57,1.12.86,1.77,1.57,2.38.34.29,1.74,1.04,1.74,1.04"/>
          <path class="cls-3" d="M22.88,13.27c1.05,1.32,1.25,2.8,1.08,4.01s-.77,2.66-.77,2.66"/>
          <path class="cls-3" d="M21.02,17.61c.52,1.61-.58,3.43-.58,3.43"/>
        </g>
      </g>
      <g>
        <path class="cls-2" d="M53.95,5.71l2.97,16.43h-3.89l-.57-3.66h-6.66l-2.25,3.66h-4.12l10.51-16.43h4.02ZM52.1,15.79l-.87-6.53h-.05l-3.84,6.53h4.77Z"/>
        <path class="cls-2" d="M61.11,22.14l-2.05-16.43h3.92l1.17,12.33h.05l6.76-12.33h4.07l-9.51,16.43h-4.42Z"/>
        <path class="cls-2" d="M74.59,11.46c.45-1.2,1.09-2.25,1.93-3.16s1.86-1.64,3.07-2.17c1.21-.54,2.56-.8,4.06-.8,1.2,0,2.29.15,3.27.45s1.81.75,2.5,1.35c.68.6,1.21,1.33,1.58,2.21.38.87.56,1.89.56,3.04,0,1.35-.22,2.64-.65,3.86-.43,1.23-1.06,2.31-1.88,3.24-.82.94-1.84,1.68-3.04,2.22-1.21.54-2.59.82-4.16.82-2.53,0-4.48-.62-5.85-1.86-1.37-1.24-2.06-3.04-2.06-5.38,0-1.33.22-2.6.67-3.8ZM78.07,16.87c.16.51.4.96.72,1.35s.74.7,1.25.93c.51.23,1.12.35,1.83.35.96,0,1.8-.21,2.52-.63.72-.42,1.31-.97,1.8-1.63.48-.67.84-1.41,1.09-2.22.24-.81.36-1.61.36-2.39,0-.58-.07-1.13-.21-1.64-.14-.51-.37-.96-.69-1.35-.32-.38-.72-.69-1.22-.92s-1.11-.35-1.85-.35c-1,0-1.87.21-2.61.63-.74.42-1.35.97-1.82,1.63-.47.67-.83,1.41-1.06,2.23-.23.82-.35,1.62-.35,2.4,0,.57.08,1.1.24,1.61Z"/>
        <path class="cls-2" d="M102.85,5.71c.69-.02,1.31.05,1.88.2.57.15,1.05.39,1.45.74.4.35.71.79.92,1.35.21.55.32,1.23.32,2.02,0,.55-.09,1.08-.26,1.59-.17.51-.42.95-.73,1.35-.32.39-.69.72-1.12.98-.43.26-.9.43-1.42.51v.05c.63.21,1.05.59,1.27,1.12.21.53.32,1.12.32,1.78,0,.37-.02.81-.05,1.32-.04.51-.05,1.02-.05,1.53,0,.37.01.72.04,1.05.03.33.09.62.17.86h-3.29c-.04-.2-.08-.39-.11-.56-.03-.18-.04-.36-.04-.54,0-.55.03-1.11.09-1.67.06-.56.09-1.12.09-1.67,0-.4-.05-.73-.16-.98-.11-.25-.26-.46-.45-.61s-.43-.26-.7-.31c-.27-.05-.57-.08-.9-.08h-3.18l-1.27,6.42h-3.35l3.2-16.43h7.32ZM100.58,13.14c.46,0,.9-.05,1.31-.15.42-.1.78-.25,1.11-.46s.58-.47.77-.8.29-.73.29-1.19-.07-.8-.2-1.07-.32-.47-.55-.61c-.23-.14-.49-.23-.79-.28s-.62-.07-.94-.07h-3.2l-.9,4.62h3.11Z"/>
        <path class="cls-2" d="M115.94,5.71l-3.77,16.43h-3.92l3.74-16.43h3.94Z"/>
        <path class="cls-2" d="M119.78,18.48,126.44,18.48,119.78,18.48l-2.25,3.66h-4.12l10.51-16.43h4.02l2.97,16.43h-3.89l-.57-3.66M126.44,18.48l-1.22-9.22h-.05l-5.39,9.22"/>
        <path class="cls-2" d="M144.31,8.75h-9.13l.72-3.04h14.07l-.65,2.9-12,10.49h10.06l-.65,3.04h-14.97l.67-2.99,11.88-10.4Z"/>
      </g>
      <line class="cls-4" x1="39.71" y1="28.41" x2="67.75" y2="28.41"/>
      <line class="cls-4" x1="82.33" y1="28.41" x2="120.62" y2="28.41"/>
      <g>
        <path class="cls-5" d="M40.45,32.22h2c.26,0,.48.03.65.08s.32.12.44.21.21.18.27.29c.06.11.11.22.14.33.03.11.04.22.05.33,0,.11,0,.2,0,.28,0,0,0,.05-.01.12,0,.08-.03.18-.06.29-.03.11-.09.24-.16.37s-.18.26-.31.37c-.13.11-.31.21-.51.28-.21.07-.46.11-.76.11h-1.49l-.4,1.91h-.87l1.03-4.97ZM40.83,34.57h1.31c.19,0,.36-.03.48-.09.13-.06.23-.13.3-.23.07-.09.12-.2.15-.31.03-.11.05-.23.05-.34,0-.07-.01-.14-.03-.22-.02-.08-.06-.15-.12-.22-.06-.07-.14-.13-.25-.17-.11-.04-.25-.07-.43-.07h-1.13l-.34,1.64Z"/>
        <path class="cls-5" d="M45.69,37.28c-.5,0-.89-.14-1.16-.41-.27-.27-.41-.66-.41-1.16,0-.3.05-.58.15-.85.1-.27.24-.5.41-.71.18-.2.39-.37.65-.49.25-.12.53-.18.84-.18.5,0,.89.13,1.16.39.27.26.41.65.41,1.15,0,.32-.05.61-.14.88-.09.27-.23.51-.41.71-.18.2-.39.36-.65.48-.25.12-.54.17-.86.17ZM46.12,34.11c-.2,0-.38.05-.53.15s-.28.23-.38.39-.18.33-.23.52c-.05.19-.07.38-.07.56,0,.26.07.48.2.66.13.18.34.26.63.26.2,0,.38-.05.53-.15.15-.1.28-.23.38-.38.1-.16.18-.33.23-.52.05-.19.07-.38.07-.56,0-.26-.07-.48-.2-.66-.13-.18-.34-.26-.63-.26Z"/>
        <path class="cls-5" d="M48.82,33.59h.75l-.15.7h.01c.06-.08.12-.18.21-.28.08-.1.17-.18.27-.26.1-.08.2-.14.32-.19.11-.05.23-.07.36-.07.06,0,.13,0,.19,0s.13,0,.19.02l-.17.76s-.09-.02-.14-.02-.09,0-.14,0c-.2,0-.38.04-.53.11s-.28.17-.38.3-.19.27-.25.43-.12.33-.15.51l-.33,1.59h-.79l.74-3.6Z"/>
        <path class="cls-5" d="M51.83,32.51h.77l-.22,1.08h.72l-.13.59h-.72l-.37,1.76c-.02.08-.03.15-.05.22-.01.07-.02.13-.02.17,0,.08.02.14.05.19.03.05.11.07.23.07.06,0,.13,0,.2,0s.15-.01.23-.03l-.13.58c-.1.02-.21.04-.33.06s-.22.02-.33.02c-.14,0-.26-.02-.35-.06-.09-.04-.17-.09-.22-.15s-.09-.13-.11-.22c-.02-.08-.03-.16-.03-.25,0-.07,0-.15.02-.23.01-.08.02-.14.03-.17l.41-1.97h-.63l.13-.59h.63l.22-1.08Z"/>
        <path class="cls-5" d="M56.42,36.07c-.13.42-.34.73-.63.92-.3.19-.66.29-1.1.29-.23,0-.44-.04-.63-.11-.19-.07-.36-.18-.5-.31-.14-.14-.25-.3-.33-.49-.08-.19-.12-.41-.12-.66,0-.28.04-.55.13-.81.09-.26.22-.5.39-.71s.38-.38.63-.5.53-.19.85-.19.58.05.78.16c.2.11.35.24.47.4s.19.34.23.54c.04.19.06.38.06.56,0,.09,0,.17-.01.24,0,.07-.02.14-.03.2h-2.68s0,.04-.01.06,0,.04,0,.06v.11c0,.25.07.45.2.61.13.15.35.23.66.23.21,0,.4-.05.55-.15.15-.1.26-.24.31-.44h.79ZM55.84,35.07s0-.04,0-.06v-.16c0-.21-.07-.39-.2-.52-.13-.14-.32-.21-.56-.21-.3,0-.53.09-.71.27-.18.18-.3.41-.38.69h1.84Z"/>
        <path class="cls-5" d="M59.37,34.64c0-.18-.07-.31-.21-.4-.13-.08-.31-.13-.52-.13-.08,0-.15,0-.23.02-.07.01-.14.04-.19.07-.06.04-.1.08-.14.14s-.05.13-.05.22c0,.08.03.15.09.2.06.05.14.1.25.14.1.04.22.08.34.11.13.04.25.08.38.12.11.04.21.09.31.14.1.05.19.11.27.19s.14.16.18.26.07.22.07.37c0,.21-.05.39-.14.54-.09.15-.21.27-.36.37-.15.1-.32.17-.51.21-.19.04-.39.07-.58.07-.21,0-.4-.02-.58-.06-.18-.04-.34-.11-.47-.2s-.24-.22-.32-.38c-.08-.16-.12-.36-.13-.61h.75c0,.23.06.39.22.48.15.09.35.14.58.14.08,0,.17,0,.26-.02.09-.02.17-.04.24-.08.07-.04.14-.09.18-.16.05-.07.07-.15.07-.25,0-.09-.03-.17-.1-.23-.07-.06-.15-.11-.26-.16-.1-.04-.22-.08-.35-.12-.13-.04-.26-.08-.39-.13-.11-.04-.21-.08-.3-.13-.1-.05-.18-.11-.25-.18-.07-.07-.13-.16-.17-.25s-.06-.21-.06-.35c0-.19.04-.36.13-.5.09-.14.2-.25.34-.34s.3-.15.47-.19.36-.06.54-.06c.19,0,.38.02.55.05.17.03.32.1.45.18.13.09.23.21.3.35.07.15.11.33.1.56h-.75Z"/>
        <path class="cls-5" d="M65.57,37.18h-.76l.11-.49h-.01c-.16.22-.33.38-.52.46-.19.08-.39.12-.61.12-.1,0-.23-.01-.39-.04-.16-.03-.31-.09-.46-.19-.15-.1-.28-.25-.39-.44s-.16-.46-.16-.8c0-.29.04-.58.13-.85.09-.28.22-.52.38-.74s.37-.39.61-.52c.24-.13.52-.2.83-.2.24,0,.46.04.65.13.19.09.34.24.43.46h.01l.4-1.86h.79l-1.06,4.97ZM65.23,34.98c0-.12-.01-.23-.05-.33-.03-.11-.08-.2-.14-.27s-.14-.14-.25-.18c-.1-.05-.22-.07-.36-.07-.22,0-.41.05-.57.15-.16.1-.29.23-.39.39-.1.16-.18.34-.23.55-.05.2-.07.4-.07.6,0,.27.07.48.2.63s.34.22.62.22c.2,0,.38-.05.54-.16.15-.11.28-.24.39-.41s.18-.35.23-.54c.05-.2.08-.39.08-.57Z"/>
        <path class="cls-5" d="M69.62,37.18h-.74l.11-.52h-.01c-.14.19-.32.34-.54.45-.22.11-.45.17-.7.17-.36,0-.63-.09-.8-.26s-.25-.4-.25-.7c0-.06,0-.14,0-.22s.01-.16.03-.22l.48-2.29h.79l-.46,2.22c-.01.06-.03.12-.04.17-.01.06-.02.11-.02.16,0,.03,0,.07,0,.13,0,.06.02.12.05.17.03.06.09.11.16.15.07.04.19.06.33.06s.29-.03.42-.1c.13-.07.24-.15.34-.26.1-.11.18-.23.24-.36.06-.13.11-.27.14-.4l.4-1.95h.79l-.74,3.6Z"/>
        <path class="cls-5" d="M81.88,37.28c-.5,0-.89-.14-1.16-.41-.27-.27-.41-.66-.41-1.16,0-.3.05-.58.15-.85s.24-.5.41-.71c.18-.2.39-.37.65-.49.25-.12.53-.18.84-.18.5,0,.89.13,1.16.39.27.26.41.65.41,1.15,0,.32-.05.61-.14.88-.09.27-.23.51-.41.71-.18.2-.39.36-.65.48-.25.12-.54.17-.86.17ZM82.31,34.11c-.2,0-.38.05-.53.15s-.28.23-.38.39-.18.33-.23.52c-.05.19-.07.38-.07.56,0,.26.07.48.2.66.13.18.34.26.63.26.2,0,.38-.05.53-.15.15-.1.28-.23.38-.38.1-.16.18-.33.23-.52.05-.19.07-.38.07-.56,0-.26-.07-.48-.2-.66-.13-.18-.34-.26-.63-.26Z"/>
        <path class="cls-5" d="M85.3,32.22h.79l-1.03,4.97h-.79l1.03-4.97Z"/>
        <path class="cls-5" d="M89.4,36.07c-.12.42-.34.73-.63.92-.3.19-.66.29-1.1.29-.23,0-.44-.04-.63-.11-.19-.07-.36-.18-.5-.31-.14-.14-.25-.3-.33-.49-.08-.19-.12-.41-.12-.66,0-.28.04-.55.13-.81.09-.26.22-.5.39-.71s.38-.38.63-.5c.25-.13.53-.19.85-.19s.58.05.78.16c.2.11.35.24.47.4.11.16.19.34.23.54.04.19.06.38.06.56,0,.09,0,.17-.01.24,0,.07-.02.14-.03.2h-2.68s0,.04-.01.06,0,.04,0,.06v.11c0,.25.07.45.2.61.13.15.35.23.66.23.21,0,.4-.05.55-.15.15-.1.26-.24.31-.44h.79ZM88.82,35.07s0-.04,0-.06v-.16c0-.21-.07-.39-.2-.52s-.32-.21-.56-.21c-.3,0-.53.09-.71.27-.18.18-.3.41-.38.69h1.84Z"/>
        <path class="cls-5" d="M90.55,33.59h.79l-.74,3.6h-.79l.74-3.6ZM90.84,32.22h.79l-.15.75h-.79l.15-.75Z"/>
        <path class="cls-5" d="M92.52,32.22h.79l-1.03,4.97h-.79l1.03-4.97Z"/>
      </g>
      <g>
        <path class="cls-5" d="M125,28.35c.22,0,.44-.02.65-.06.21-.04.4-.1.57-.2.17-.09.32-.21.44-.35.12-.14.2-.32.24-.53h.86v6.87h-1.16v-4.84h-1.59v-.88Z"/>
        <path class="cls-5" d="M132.24,34.22c-.33,0-.63-.05-.91-.15s-.52-.24-.73-.43c-.2-.19-.36-.41-.48-.68-.11-.27-.17-.57-.17-.9,0-.43.11-.79.32-1.09.21-.29.5-.49.87-.59v-.02c-.3-.12-.52-.3-.68-.54-.16-.24-.24-.53-.24-.87,0-.59.17-1.05.52-1.38s.85-.5,1.5-.5,1.15.17,1.5.5c.35.33.52.79.52,1.38,0,.33-.08.62-.24.87-.16.25-.38.43-.68.54v.02c.36.1.65.29.87.59.21.29.32.66.32,1.09,0,.33-.06.63-.17.9-.11.27-.27.5-.48.68-.2.19-.45.33-.73.43s-.59.15-.91.15ZM132.24,33.33c.35,0,.65-.11.88-.33.24-.22.35-.54.35-.94,0-.38-.12-.67-.35-.89-.23-.21-.53-.32-.88-.32s-.65.11-.88.32c-.23.21-.35.51-.35.89,0,.41.12.72.35.94.24.22.53.33.88.33ZM132.24,27.96c-.28,0-.53.09-.72.27-.2.18-.3.44-.3.78s.1.58.29.75.44.26.73.26.54-.09.73-.26c.19-.17.29-.42.29-.75s-.1-.6-.3-.78c-.2-.18-.44-.27-.72-.27Z"/>
        <path class="cls-5" d="M137.39,27.08c.46,0,.84.11,1.14.34.29.23.52.51.69.86.16.35.27.73.33,1.15.06.42.09.82.09,1.22s-.03.8-.09,1.22-.17.8-.33,1.15c-.16.35-.39.64-.69.86-.29.23-.67.34-1.14.34s-.84-.11-1.14-.34c-.29-.23-.52-.51-.69-.86-.16-.35-.27-.73-.33-1.15-.06-.42-.09-.82-.09-1.22s.03-.8.09-1.22c.06-.42.17-.8.33-1.15s.39-.64.69-.86c.29-.23.67-.34,1.14-.34ZM137.39,33.28c.23,0,.42-.07.57-.21.15-.14.28-.33.37-.57s.15-.52.19-.84c.04-.32.06-.66.06-1.02s-.02-.7-.06-1.02c-.04-.32-.1-.6-.19-.84-.09-.24-.21-.43-.37-.57-.15-.14-.35-.21-.57-.21s-.43.07-.58.21c-.15.14-.27.33-.36.57-.09.24-.15.52-.19.84s-.06.66-.06,1.02.02.7.06,1.02.1.6.19.84c.09.24.21.43.36.57.15.14.34.21.58.21Z"/>
        <path class="cls-5" d="M142.54,27.08c.46,0,.84.11,1.14.34.29.23.52.51.69.86.16.35.27.73.33,1.15.06.42.09.82.09,1.22s-.03.8-.09,1.22-.17.8-.33,1.15c-.16.35-.39.64-.69.86-.29.23-.67.34-1.14.34s-.84-.11-1.14-.34c-.29-.23-.52-.51-.69-.86-.16-.35-.27-.73-.33-1.15-.06-.42-.09-.82-.09-1.22s.03-.8.09-1.22c.06-.42.17-.8.33-1.15s.39-.64.69-.86c.29-.23.67-.34,1.14-.34ZM142.54,33.28c.23,0,.42-.07.57-.21.15-.14.28-.33.37-.57s.15-.52.19-.84c.04-.32.06-.66.06-1.02s-.02-.7-.06-1.02c-.04-.32-.1-.6-.19-.84-.09-.24-.21-.43-.37-.57-.15-.14-.35-.21-.57-.21s-.43.07-.58.21c-.15.14-.27.33-.36.57-.09.24-.15.52-.19.84s-.06.66-.06,1.02.02.7.06,1.02.1.6.19.84c.09.24.21.43.36.57.15.14.34.21.58.21Z"/>
      </g>
      <path class="cls-5" d="M68.76,38.38c0,1.35,3.22,2.78,5.35,2.78,1.97,0,4.26-1.17,4.26-2.42,0-2.35-7.5-5.01-7.5-7.73,0-1.89.58-3.72,2.26-3.72,1.32,0,3.32.35,3.32,1.66,0,.97-.72,1.61-1.37,1.61-.56,0-.03-.74.13-1.51,0,0,.76,0,.03-.77-.59-.62-1.73-.66-2.38-.66-.75,0-.75.73-.75,1.61,0,1.95,7.86,4.64,7.86,7.87,0,2.31-3.38,4.08-5.9,4.08-2.18,0-5.77-1.29-5.77-2.78"/>
      <path class="cls-5" d="M70.04,38.9c.16-.14.31-.21.45-.22s.27.04.38.14c.09.09.14.19.15.3,0,.12-.04.22-.14.31-.03.03-.08.06-.14.08-.06.02-.12.03-.17.02,0,.14.04.26.13.38.08.12.18.23.3.34.16.15.36.26.6.32s2.03,1.27,2.3,1.24c.27-.04.55-.12.85-.26.29-.13,1.83-.15,2.1-.39.46-.41.75-.85.88-1.31.12-.46.13-.92.02-1.38-.11-.46-.3-.89-.59-1.31-.28-.42-.59-.79-.93-1.12-.55-.52-4.07-3.49-4.41-4s-.55-1-.66-1.47c-.1-.47-.09-.92.05-1.35.14-.43.41-.82.81-1.18.36-.32.73-.5,1.11-.56.38-.05,1.06,0,1.32.24.2.19.85.34.8.57-.05.23-.18.44-.39.62-.03-.16-.08-.31-.14-.44-.06-.13-.97-.02-1.12-.16-.23-.21-.6-.44-.85-.42s-.48.13-.67.3c-.26.24-.44.48-.53.74-.09.26-.11.52-.07.79.04.27.14.55.28.82.15.28.33.56.53.83.21.28.43.55.68.82.25.27,3.57,2.99,3.81,3.25.6.64,1.01,1.24,1.24,1.81.22.57.32,1.1.28,1.59-.04.49-.19.94-.45,1.35s-.58.79-.96,1.12c-.3.27-1.88.31-2.23.45s-.69.22-1.03.24c-.34.01-2.21-1.23-2.53-1.35-.32-.12-.61-.29-.87-.54-.22-.2-.35-.42-.38-.65-.04-.23.03-.42.21-.58Z"/>
      <path class="cls-5" d="M70.45,39.7c.14-.15.29-.24.43-.26s.28.02.39.11c.1.08.16.18.18.3.02.12-.02.22-.12.32-.03.03-.08.06-.14.09-.06.03-.11.04-.17.03.01.14.07.26.16.38.1.11.21.22.34.33.18.14,1.93,1.43,2.18,1.48s.5.04.78-.02c.27-.06,1.8,0,2.09-.15.28-.16.55-.37.8-.63.43-.45.68-.91.76-1.39.08-.48.04-.94-.11-1.4-.15-.45-.4-.88-.72-1.29-.33-.4-.68-.76-1.06-1.06-.61-.49-1.11-.98-1.5-1.47s-3.74-3.42-3.89-3.89c-.15-.47-.18-.93-.08-1.37.1-.45.33-.86.7-1.25.33-.35.69-.57,1.08-.65.38-.08.72,0,1,.21.22.17,1.25.28,1.22.52-.03.23-1.07.55-1.27.75-.05-.16-.11-.31-.19-.43-.08-.12-.2-.25-.37-.38-.25-.19-.5-.27-.76-.23s-.47.16-.65.35c-.25.26-.4.52-.47.78-.07.27-.06.53,0,.81.07.27.19.54.37.81.18.27.39.54.62.8.24.26,3.57,2.97,3.85,3.23.28.26.55.51.82.75.67.6,1.15,1.18,1.43,1.74.28.56.43,1.09.44,1.59,0,.5-.1.97-.32,1.4s-.51.84-.86,1.21c-.28.3-.59.53-.93.7s-1.93.1-2.28.14c-.35.04-2.23-1.18-2.56-1.28-.33-.09-.65-.25-.94-.48-.24-.19-.39-.4-.45-.63-.06-.23,0-.43.16-.6Z"/>
    </g>
  </g>
</svg>