<?xml version="1.0" encoding="UTF-8"?>
<svg xmlns="http://www.w3.org/2000/svg" version="1.1" viewBox="0 0 351.11 226.11">
  <defs>
    <style>
      .cls-1 {
        fill: #1a3b69;
      }

      .cls-2 {
        fill: #fbb173;
      }
    </style>
  </defs>
  <!-- Generator: Adobe Illustrator 28.7.6, SVG Export Plug-In . SVG Version: 1.2.0 Build 188)  -->
  <g>
    <g id="Layer_1">
      <g>
        <g>
          <path class="cls-2" d="M41.39,34.75c0-2.71-.5-5.02-1.49-6.93-.99-1.91-2.53-2.86-4.59-2.86-2.29,0-3.97.83-5.04,2.48-1.07,1.65-1.61,3.5-1.61,5.53,0,2.97.86,5.32,2.58,7.06s3.88,3.24,6.48,4.51c2.6,1.27,5.39,2.57,8.37,3.88,2.98,1.32,5.77,3.03,8.37,5.15,2.6,2.12,4.76,4.9,6.48,8.33,1.72,3.43,2.58,7.91,2.58,13.42,0,9.67-2.49,16.68-7.45,21.05-4.97,4.37-12.16,6.55-21.56,6.55-4.43,0-8.35-.4-11.76-1.21-3.4-.8-6.27-2.2-8.6-4.2-2.33-1.99-4.11-4.6-5.33-7.82-1.22-3.22-1.84-7.21-1.84-11.96v-3.18h20.64v2.16c0,3.9.65,6.63,1.95,8.2s2.98,2.35,5.05,2.35c2.22,0,3.92-.85,5.1-2.55,1.19-1.7,1.78-3.77,1.78-6.23,0-2.97-.82-5.32-2.46-7.06-1.65-1.74-3.71-3.22-6.19-4.45-2.49-1.23-5.18-2.48-8.09-3.75s-5.6-2.92-8.08-4.96-4.55-4.71-6.19-8.01-2.46-7.63-2.46-12.98c0-9.24,2.22-16.28,6.65-21.11,4.43-4.83,11.16-7.25,20.18-7.25s16.07,2.23,20.24,6.68c4.16,4.45,6.25,11.55,6.25,21.31h-19.96v-2.16Z"/>
          <path class="cls-2" d="M91.62,10.71v34.85h.23l15.83-34.85h22.71l-20.64,39.69,23.17,51.13h-24.31l-12.5-31.67-4.47,7.63v24.04h-21.33V10.71h21.33Z"/>
          <path class="cls-2" d="M155.38,10.71v90.82h-21.33V10.71h21.33Z"/>
          <path class="cls-2" d="M198.62,55.1v19.33h-35.78v-19.33h35.78Z"/>
        </g>
        <g>
          <path class="cls-1" d="M136,128.67l19.96,90.82h-22.7l-2.18-15.9h-16.97l-2.18,15.9h-22.36l19.61-90.82h26.83ZM122.47,147.25l-5.85,38.54h11.93l-5.85-38.54h-.23Z"/>
          <path class="cls-1" d="M192.88,128.67c4.05,0,7.51.59,10.38,1.78,2.87,1.19,5.19,2.86,7,5.02,1.8,2.16,3.09,4.73,3.9,7.7.8,2.97,1.2,6.19,1.2,9.67,0,6.11-1.11,11.03-3.32,14.76-2.22,3.73-5.77,6.02-10.67,6.87v.26c5.12.51,8.64,2.5,10.55,5.98s2.87,8.27,2.87,14.37v11.45c0,1.27.04,2.48.12,3.63.08,1.14.19,2.18.34,3.11.15.94.34,1.65.57,2.16.3.51.61,1,.92,1.46.3.47.8.91,1.49,1.34v1.27h-22.71c-.54-1.19-.94-2.59-1.2-4.2-.27-1.61-.46-3.22-.57-4.83-.11-1.61-.19-3.16-.23-4.64-.04-1.48-.06-2.69-.06-3.63v-6.1c0-2.55-.11-4.66-.34-6.36-.23-1.7-.63-3.03-1.2-4.01-.57-.97-1.3-1.65-2.18-2.04-.88-.38-1.97-.57-3.27-.57h-5.62v36.38h-21.33v-90.82h33.37ZM185.09,167.09c3.05,0,5.31-1,6.77-2.99,1.45-1.99,2.18-4.6,2.18-7.82,0-3.82-.71-6.53-2.12-8.14-1.42-1.61-3.73-2.42-6.94-2.42h-4.13v21.37h4.25Z"/>
          <path class="cls-1" d="M273.85,128.67v19.33h-27.18v15.52h25.46v18.57h-25.46v18.06h28.21v19.33h-49.54v-90.82h48.51Z"/>
          <path class="cls-1" d="M322.93,128.67l19.96,90.82h-22.71l-2.18-15.9h-16.97l-2.18,15.9h-22.36l19.61-90.82h26.84ZM309.4,147.25l-5.85,38.54h11.93l-5.85-38.54h-.23Z"/>
        </g>
      </g>
    </g>
  </g>
</svg>