<?xml version="1.0" encoding="UTF-8"?>
<svg xmlns="http://www.w3.org/2000/svg" version="1.1" viewBox="0 0 129.63 123.55">
  <defs>
    <style>
      .cls-1 {
        fill: #fff;
        font-family: HelveticaNeue-CondensedBold, 'Helvetica Neue';
        font-size: 17.29px;
        font-weight: 700;
      }

      .cls-2 {
        fill: #fbb173;
      }

      .cls-3 {
        fill: none;
        stroke: #fbb173;
        stroke-miterlimit: 10;
        stroke-width: 3.65px;
      }
    </style>
  </defs>
  <!-- Generator: Adobe Illustrator 28.7.6, SVG Export Plug-In . SVG Version: 1.2.0 Build 188)  -->
  <g>
    <g id="Layer_1">
      <path class="cls-2" d="M22.82,46.01c.62,1.3,1.86,1.95,3.74,1.95,1.03,0,1.86-.18,2.48-.54.62-.36,1.1-.85,1.44-1.47s.56-1.35.66-2.18c.1-.84.15-1.72.15-2.63s-.07-1.86-.21-2.72c-.14-.86-.41-1.62-.81-2.3s-.96-1.22-1.67-1.62c-.72-.4-1.67-.6-2.87-.6h-2.87v-5.63h2.81c.92,0,1.68-.19,2.3-.57s1.12-.88,1.49-1.49c.38-.62.66-1.33.84-2.13.18-.8.27-1.64.27-2.51,0-2.04-.34-3.47-1.02-4.31-.68-.84-1.71-1.26-3.11-1.26-.92,0-1.67.17-2.24.51-.58.34-1.03.82-1.35,1.44-.32.62-.53,1.35-.63,2.18-.1.84-.15,1.76-.15,2.75h-7.9c0-4.23,1.06-7.37,3.17-9.42,2.11-2.05,5.21-3.08,9.27-3.08s6.87.88,9.01,2.63c2.13,1.76,3.2,4.51,3.2,8.26,0,2.55-.57,4.64-1.71,6.25-1.14,1.62-2.72,2.64-4.76,3.08v.12c2.75.44,4.7,1.55,5.84,3.32,1.13,1.77,1.7,4,1.7,6.67,0,1.44-.18,2.91-.54,4.43-.36,1.52-1.06,2.89-2.09,4.13-1.04,1.24-2.46,2.23-4.28,2.99-1.81.76-4.2,1.14-7.15,1.14-4.11,0-7.18-1.12-9.21-3.35-2.04-2.23-3.05-5.4-3.05-9.51v-.18h8.26c.04,2.47.37,4.36.99,5.65Z"/>
      <path class="cls-2" d="M58.84,17.32c-.58-.88-1.58-1.32-3.02-1.32-1.12,0-2.03.27-2.72.81-.7.54-1.24,1.29-1.61,2.24-.38.96-.63,2.09-.75,3.41-.12,1.31-.18,2.75-.18,4.31v2.09h.12c.72-1.12,1.75-2,3.08-2.66,1.34-.66,2.96-.99,4.88-.99s3.47.33,4.79.99c1.32.66,2.38,1.58,3.2,2.75.82,1.18,1.41,2.57,1.79,4.19.38,1.62.57,3.38.57,5.3,0,4.91-1.09,8.63-3.26,11.16s-5.65,3.8-10.44,3.8c-2.95,0-5.31-.52-7.06-1.56-1.76-1.03-3.1-2.46-4.04-4.28-.94-1.81-1.55-3.92-1.83-6.31s-.42-4.88-.42-7.48c0-2.99.09-5.89.27-8.7.18-2.81.72-5.3,1.61-7.48.9-2.17,2.3-3.92,4.22-5.24,1.91-1.31,4.63-1.97,8.14-1.97,1.52,0,2.98.18,4.4.54,1.42.36,2.66.96,3.74,1.8,1.08.84,1.95,1.94,2.6,3.32.66,1.38,1.01,3.08,1.05,5.11h-8.26c0-1.67-.29-2.95-.87-3.83ZM51.15,42.93c.12,1.04.35,1.92.69,2.66.34.74.82,1.32,1.44,1.74s1.43.63,2.42.63,1.86-.21,2.48-.63,1.09-1.01,1.41-1.77.53-1.65.63-2.66.15-2.12.15-3.32c0-2.87-.36-4.93-1.08-6.16s-1.91-1.86-3.59-1.86-2.93.62-3.65,1.86-1.08,3.29-1.08,6.16c0,1.2.06,2.32.18,3.35Z"/>
      <path class="cls-2" d="M71.19,24.5c.2-2.71.74-5.11,1.62-7.21.88-2.09,2.2-3.77,3.98-5.03s4.24-1.88,7.39-1.88c2.59,0,4.74.37,6.43,1.11s3.05,1.93,4.07,3.56c1.02,1.64,1.74,3.76,2.15,6.37.42,2.61.63,5.79.63,9.54,0,2.95-.1,5.78-.3,8.5s-.74,5.11-1.61,7.21c-.88,2.09-2.21,3.74-3.98,4.93-1.77,1.2-4.24,1.79-7.39,1.79-2.55,0-4.69-.34-6.4-1.02-1.72-.68-3.08-1.84-4.1-3.47-1.02-1.63-1.74-3.76-2.15-6.37s-.63-5.79-.63-9.54c0-2.95.1-5.78.3-8.5ZM79.72,41.4c.14,1.69.39,3.03.75,4.01.36.98.84,1.65,1.43,2.01.6.36,1.36.54,2.27.54s1.74-.23,2.33-.69c.6-.46,1.07-1.23,1.4-2.33s.58-2.56.72-4.4c.14-1.83.21-4.11.21-6.82v-4.61c0-2.67-.07-4.85-.21-6.55-.14-1.69-.39-3.03-.75-4.01-.36-.98-.84-1.65-1.44-2-.6-.36-1.36-.54-2.27-.54s-1.73.23-2.33.69c-.6.46-1.07,1.24-1.41,2.33-.34,1.1-.58,2.56-.72,4.4-.14,1.84-.21,4.11-.21,6.82v4.61c0,2.67.07,4.86.21,6.55Z"/>
      <path class="cls-2" d="M102.73,9.78c.96-1.33,2.69-1.99,5.19-1.99,1.31-.03,2.4.12,3.25.44s1.53.81,2.04,1.46c.5.66.85,1.48,1.05,2.47.2.99.3,2.14.3,3.46s-.11,2.4-.32,3.36c-.21.96-.58,1.77-1.1,2.43-.52.66-1.21,1.15-2.06,1.49-.85.34-1.91.5-3.16.5-1.31.03-2.4-.12-3.25-.44-.85-.32-1.53-.81-2.04-1.46s-.85-1.48-1.05-2.47c-.2-.99-.3-2.13-.3-3.41,0-2.56.48-4.51,1.44-5.84ZM106.21,19.1c.23.92.8,1.37,1.72,1.37.76,0,1.3-.37,1.6-1.12.3-.75.46-1.99.46-3.73s-.15-2.99-.46-3.75c-.31-.76-.84-1.14-1.6-1.14-.91,0-1.49.47-1.72,1.4s-.34,2.1-.34,3.5.11,2.56.34,3.48Z"/>
      <g>
        <path class="cls-3" d="M53.89,73.28H18.62c-2.98,0-5.4-2.69-5.4-6.01h0c0-3.32,2.42-6.01,5.4-6.01h81.22c2.98,0,5.4,2.69,5.4,6.01h0c0,3.32-2.42,6.01-5.4,6.01h-39.58"/>
        <path class="cls-2" d="M53.49,73.28c-1.03,1.03-1.52,3.07-1.56,4.48,1.41-1.9,3.25-3.55,5.47-4.48-2.22-.89-3.97-2.64-5.47-4.48.12,1.51.49,3.35,1.56,4.48Z"/>
      </g>
      <ellipse class="cls-2" cx="14.07" cy="67.27" rx="4.89" ry="4.78"/>
      <ellipse class="cls-2" cx="105.24" cy="67.27" rx="4.89" ry="4.78"/>
      <text class="cls-1" transform="translate(-.62 112.41) scale(1.26 1)"><tspan x="0" y="0">CLICK &amp; DRAG</tspan></text>
    </g>
  </g>
</svg>